<svg xmlns="http://www.w3.org/2000/svg" width="1600" height="900" viewBox="0 0 1600 900">
  <defs>
    <linearGradient id="bg" x1="0" y1="0" x2="1" y2="1">
      <stop offset="0" stop-color="#7C3AED"/>
      <stop offset="1" stop-color="#0EA5E9"/>
    </linearGradient>
    <radialGradient id="glow" cx="35%" cy="30%" r="70%">
      <stop offset="0" stop-color="#ffffff" stop-opacity="0.22"/>
      <stop offset="1" stop-color="#ffffff" stop-opacity="0"/>
    </radialGradient>
    <filter id="soft" x="-20%" y="-20%" width="140%" height="140%">
      <feGaussianBlur stdDeviation="18"/>
    </filter>
  </defs>

  <rect width="1600" height="900" fill="url(#bg)"/>
  <rect width="1600" height="900" fill="url(#glow)"/>

  <g opacity="0.35" filter="url(#soft)">
    <circle cx="260" cy="720" r="220" fill="#ffffff"/>
    <circle cx="1380" cy="220" r="260" fill="#ffffff"/>
  </g>

  <g opacity="0.18">
    <path d="M0 620 C 260 560, 420 760, 760 700 C 1120 640, 1240 460, 1600 520 L1600 900 L0 900 Z" fill="#0B1020"/>
    <path d="M0 520 C 320 450, 520 660, 820 600 C 1140 540, 1320 380, 1600 440" fill="none" stroke="#ffffff" stroke-width="2"/>
  </g>

  <g font-family="ui-sans-serif, system-ui, -apple-system, Segoe UI, Roboto, Helvetica, Arial" fill="#ffffff">
    <text x="120" y="390" font-size="78" font-weight="800" letter-spacing="-1">TV Services</text>
    <text x="120" y="450" font-size="30" opacity="0.9">Gold & Diamond • flexible Laufzeit</text>

    <g transform="translate(120 520)" opacity="0.95">
      <rect x="0" y="0" rx="18" ry="18" width="320" height="58" fill="#ffffff" fill-opacity="0.16" stroke="#ffffff" stroke-opacity="0.25"/>
      <text x="22" y="38" font-size="22" font-weight="700">Rivo+</text>
      <text x="98" y="38" font-size="18" opacity="0.85">Official & Secure</text>
    </g>
  </g>

  <g transform="translate(1210 560)" opacity="0.92">
    <rect x="0" y="0" rx="28" ry="28" width="300" height="220" fill="#0B1020" fill-opacity="0.28" stroke="#ffffff" stroke-opacity="0.22"/>
    <g transform="translate(34 44)" fill="none" stroke="#ffffff" stroke-width="10" stroke-linecap="round" stroke-linejoin="round" opacity="0.9">
      <path d="M24 92 L70 46 L98 74 L150 22"/>
      <path d="M24 132 H156"/>
      <path d="M24 172 H122"/>
    </g>
    <text x="34" y="200" font-family="ui-sans-serif, system-ui, -apple-system, Segoe UI, Roboto, Helvetica, Arial" fill="#ffffff" font-size="18" opacity="0.85">
      Premium Experience
    </text>
  </g>
</svg>